<?xml version="1.0" encoding="UTF-8" standalone="no"?>
<!-- Created with Inkscape (http://www.inkscape.org/) -->

<svg
   width="44.238125mm"
   height="50.450634mm"
   viewBox="0 0 44.238125 50.450634"
   version="1.1"
   id="svg1"
   xml:space="preserve"
   inkscape:version="1.3 (1:1.3+202307231459+0e150ed6c4)"
   sodipodi:docname="astronaut.svg"
   xmlns:inkscape="http://www.inkscape.org/namespaces/inkscape"
   xmlns:sodipodi="http://sodipodi.sourceforge.net/DTD/sodipodi-0.dtd"
   xmlns="http://www.w3.org/2000/svg"
   xmlns:svg="http://www.w3.org/2000/svg"><sodipodi:namedview
     id="namedview1"
     pagecolor="#ffffff"
     bordercolor="#000000"
     borderopacity="0.25"
     inkscape:showpageshadow="2"
     inkscape:pageopacity="0.0"
     inkscape:pagecheckerboard="0"
     inkscape:deskcolor="#d1d1d1"
     inkscape:document-units="mm"
     inkscape:zoom="0.36346801"
     inkscape:cx="-218.72626"
     inkscape:cy="-107.29968"
     inkscape:window-width="1850"
     inkscape:window-height="1016"
     inkscape:window-x="0"
     inkscape:window-y="0"
     inkscape:window-maximized="1"
     inkscape:current-layer="layer1" /><defs
     id="defs1"><clipPath
       clipPathUnits="userSpaceOnUse"
       id="clipPath1"><rect
         style="fill:none;stroke:#000080;stroke-width:1.023"
         id="rect2"
         width="38.586571"
         height="35.448746"
         x="150.12933"
         y="113.05125" /></clipPath><filter
       inkscape:label="Sharpen More"
       inkscape:menu="Image Effects"
       inkscape:menu-tooltip="Sharpen edges and boundaries within the object, force=0.3"
       style="color-interpolation-filters:sRGB"
       id="filter5"
       x="0"
       y="0"
       width="1"
       height="1"><feConvolveMatrix
         order="3 3"
         kernelMatrix="0 -0.15 0 -0.15 1.6 -0.15 0 -0.15 0"
         divisor="1"
         in="SourceGraphic"
         targetX="1"
         targetY="1"
         id="feConvolveMatrix5"
         result="fbSourceGraphic" /><feColorMatrix
         result="fbSourceGraphicAlpha"
         in="fbSourceGraphic"
         values="0 0 0 -1 0 0 0 0 -1 0 0 0 0 -1 0 0 0 0 1 0"
         id="feColorMatrix5" /><feConvolveMatrix
         id="feConvolveMatrix6"
         targetY="1"
         targetX="1"
         in="fbSourceGraphic"
         divisor="1"
         kernelMatrix="0 -0.3 0 -0.3 2.2 -0.3 0 -0.3 0"
         order="3 3"
         result="result1" /><feBlend
         id="feBlend6"
         in2="fbSourceGraphic"
         mode="normal"
         result="result2" /></filter></defs><g
     inkscape:label="Layer 1"
     inkscape:groupmode="layer"
     id="layer1"
     transform="translate(-124.27137,-59.712226)"><g
       id="g7"
       transform="matrix(2.0926698,0,0,2.0926698,-63.192721,-187.26433)"
       style="fill:#f9f9f9"><path
         style="opacity:1;fill:#f9f9f9"
         d="m 95.316734,138.30178 c 0.03685,-0.22576 -0.159265,-0.25849 -0.269829,-0.34123 -0.148402,-0.11105 -0.581002,-0.0392 -0.944715,-0.0796 -0.607861,-0.0676 -0.50455,-0.0913 -0.919153,0.84215 -0.116872,0.26312 -0.646595,0.50344 -1.020592,0.55723 -0.449284,0.0646 -0.8341,0.11402 -1.253432,-0.30531 -1.121459,-1.12146 -0.253985,-4.39355 1.186263,-4.79211 0.363802,-0.10067 1.141943,-0.31325 1.729201,-0.47239 0.587259,-0.15915 1.212893,-0.79799 1.546655,-1.10894 l 0.606841,-0.56535 -0.682397,-0.71227 c -0.442488,-0.46186 -0.682396,-1.00949 -0.682396,-1.55769 0,-0.8246 -0.02909,-0.84542 -1.181316,-0.84542 -0.910527,0 -1.246233,-0.1213 -1.464517,-0.52916 -0.537295,-1.00395 0.58435,-2.21499 2.686049,-2.90014 1.424623,-0.46443 1.44108,-0.48589 2.188776,-2.85455 0.3388,-1.0733 -0.953443,-0.78571 -1.757453,0.50584 -0.60163,0.96645 -1.698656,1.83577 -2.835002,1.90438 -0.96262,0.0581 -2.317097,-0.63206 -2.578235,-1.31257 -0.263008,-0.68539 0.03711,-0.62582 1.060957,0.069 0.546691,0.37099 0.970448,0.68173 1.506899,0.60742 0.932603,-0.12917 1.690435,-0.8892 2.234029,-1.7283 0.612938,-0.94614 1.176777,-1.40312 2.339176,-1.47846 2.974869,-0.19282 2.377215,-0.35593 3.193797,-1.13711 0.95097,-0.90974 2.18887,-1.57697 3.46985,-1.86714 0.98404,-0.22291 2.12051,-0.30469 3.02341,0.14563 1.19121,0.59411 2.20335,1.7863 2.55318,3.07066 0.47309,1.73697 0.56545,3.71304 -0.87004,5.33019 -0.23935,0.26964 -0.64487,0.86839 -0.64487,0.86839 l 0.85664,0.97567 c 1.84757,2.10426 2.94511,5.86383 1.95236,6.68774 -0.62317,0.51718 -1.48287,-0.0805 -2.47837,-1.72308 -0.46908,-0.77398 -1.17756,-1.71871 -1.39853,-2.02207 -0.39495,-0.54219 -0.41084,-0.57798 -0.75515,0.4616 -0.39509,1.1929 -2.90431,5.9649 -3.48488,6.78778 -0.54278,0.76933 -1.90098,1.67207 -3.233359,1.89188 -1.056345,0.17427 -1.303501,-0.27528 -1.466003,0.37104 -0.0275,0.10938 -0.07332,0.35584 -0.182736,0.49903 -0.211171,0.27637 -0.768766,0.57658 -1.210136,0.58314 -0.560782,0.008 -0.771821,-0.0914 -1.008221,-0.3653 -0.141347,-0.16378 -0.377785,-0.43163 -0.311855,-1.59539 0.05089,-0.89826 0.422879,-1.39814 0.499104,-1.86519 z m 1.625339,2.36209 c 0.06757,-0.76971 0.0023,-0.69152 1.424943,-0.71939 1.395967,-0.0274 1.926064,-0.42153 1.32962,-0.63414 -0.187278,-0.0667 -0.696368,-0.42081 -1.131312,-0.78679 -0.716223,-0.60266 -0.866202,-0.63419 -1.590202,-0.3343 -1.129975,0.46805 -2.007172,2.37524 -1.38064,3.00177 0.376585,0.37659 1.298576,0.0312 1.347591,-0.52715 z m 4.795657,-2.38601 c 1.12026,-1.63324 1.04564,-1.62689 -0.066,-1.66868 -0.51649,-0.0194 -1.60086,-0.18011 -1.75,-0.27228 -0.341551,-0.2111 -1.475904,0.89413 -1.269078,1.22878 0.215582,0.34882 1.851018,1.40714 2.225218,1.40833 0.17134,5.4e-4 0.58396,-0.29385 0.8599,-0.69615 z m -9.223821,0.15866 c 0.302314,-0.16179 0.511773,-0.55239 0.511773,-0.95435 0,-0.48111 0.110759,-0.63795 0.378086,-0.53537 0.572821,0.21982 2.267747,0.51414 2.267747,0.3938 0,-0.0582 -0.238125,-0.57286 -0.529166,-1.14373 -0.291042,-0.57086 -0.529167,-1.20656 -0.529167,-1.41267 0,-0.49975 -2.041302,-0.19275 -2.703582,0.4066 -0.648227,0.58664 -1.027939,2.0903 -0.72744,2.88068 0.266385,0.70064 0.556228,0.78009 1.331749,0.36504 z m 5.674821,-2.11141 c 0.472367,-0.52196 0.553007,-0.66395 -0.743812,-1.7596 -0.291846,-0.24657 -0.750935,-0.75163 -0.871056,-1.01051 -0.26515,-0.57144 -0.848641,0.0951 -1.063755,0.2736 -0.309657,0.25699 -0.238665,0.50424 -0.0081,1.13205 0.359988,0.98009 0.628947,1.62867 1.272207,1.92293 0.412781,0.18883 1.006184,-0.1073 1.414485,-0.55847 z m 5.83213,-2.21088 c 0.47236,-0.85442 1.05899,-2.22364 1.30361,-3.04271 0.67459,-2.25878 0.8087,-2.53117 0.88123,-1.78912 0.0648,0.66289 1.89506,2.94572 2.23815,2.94572 0.14678,0 0.39718,-0.20658 0.55644,-0.45906 0.31988,-0.50711 -0.125,-1.53 -1.29038,-2.96694 -0.53913,-0.66476 -0.79482,-0.77062 -1.72839,-0.71553 -1.55676,0.0918 -3.6745,-0.59392 -5.03868,-1.63163 -0.64365,-0.48963 -1.289345,-0.85884 -1.434866,-0.82049 -0.145521,0.0384 -0.83013,0.14593 -1.521354,0.23906 l -1.256771,0.16931 v 1.04212 c 0,0.97688 0.05296,0.96358 0.778135,1.04212 0.980786,0.10622 1.834699,0.34457 0.551361,0.57319 -0.228434,0.0407 -0.308685,0.71796 -0.402834,1.27522 -0.09415,0.55726 -0.337376,1.23254 -0.540506,1.50063 -0.543555,0.71736 -0.483824,0.93953 0.589829,2.19385 1.458348,1.70375 2.334556,2.15412 4.026036,2.06938 l 1.43014,-0.0716 z m 6.20277,-0.24804 c 0,-0.33598 -0.14883,-0.80674 -0.33073,-1.04612 -0.28874,-0.37999 -0.3942,-0.38767 -0.8307,-0.0605 -0.47174,0.35355 -0.47513,0.41264 -0.06,1.04613 0.55448,0.84624 1.22148,0.87929 1.22148,0.0605 z m -13.536221,-3.76718 c 0.375088,-0.93159 0.475618,-1.15737 -0.54882,-1.15511 -0.808928,0.002 -0.66361,0.0842 -0.68863,0.74076 -0.02119,0.556 0.294105,1.07173 0.774429,1.0842 0.08578,0.002 0.310893,-0.29202 0.463021,-0.66985 z m -1.79825,-1.90441 c 0.568121,-0.0415 1.099886,0.12877 1.099886,-0.49195 0,-0.39327 -0.122566,-1.14453 -0.207701,-1.22966 -0.275044,-0.27504 -1.645628,0.14143 -2.44871,0.74085 -0.393098,0.29341 -0.706384,0.79785 -0.571505,0.95936 0.123473,0.14785 1.420538,0.0731 2.12803,0.0214 z m 8.012221,-1.85153 c -1.19427,-0.72342 -2.35739,-2.10691 -2.29848,-3.50196 0.0539,-1.277 1.13883,-2.66208 2.36675,-3.01682 1.5666,-0.45259 3.58472,0.37513 4.6069,1.64566 0.69882,0.86861 0.74986,2.25113 0.42454,3.31744 -0.24546,0.80457 -0.88064,1.58913 -1.66306,1.89802 -1.0708,0.42273 -2.45199,0.25411 -3.43665,-0.34234 z m 2.24505,0.98096 c 1.26482,0.0327 1.66085,-0.0937 2.38094,-0.96635 h 2e-5 c 0.84699,-1.02645 1.10874,-1.77082 1.10874,-3.15312 0,-1.43602 -0.77067,-3.03866 -1.82079,-3.78642 -1.6235,-1.15602 -4.79542,-0.33838 -6.072,1.56522 -0.50841,0.75814 -0.60071,1.17896 -0.50905,2.32096 0.12713,1.5838 1.3351,2.79404 2.59924,3.52344 0.53334,0.30773 1.64936,0.47909 2.3129,0.49627 z m 1.77917,-2.38983 c 0.23085,-0.44641 0.38273,-1.06002 0.33752,-1.36358 -0.0599,-0.40243 -0.23729,-0.18257 -0.65475,0.81165 -0.61644,1.46813 -0.37436,1.88932 0.31723,0.55193 z m -8.161915,-0.29461 c 0.310266,-0.37385 0.287878,-2.17072 -0.0081,-2.75207 -0.08332,-0.16362 -0.555019,-0.0479 -0.711921,0.1358 -0.524759,0.61438 -0.703586,1.41092 -0.903008,2.0689 -0.153037,0.50494 0.113787,0.92578 0.662123,0.92578 0.35579,0 0.788219,-0.17029 0.960944,-0.37841 z"
         id="path6"
         sodipodi:nodetypes="ssssssssscsssssssassasssaaascsssssssssssssscsssssscssssscssssssscsssssscsssscscscssssssccscsssccsssssssssssssssaassssssssssssssssssssssss" /><ellipse
         style="opacity:1;fill:#f9f9f9;stroke:none;stroke-width:0.723;stroke-linejoin:round;stroke-dasharray:none"
         id="path7"
         cx="128.8911"
         cy="103.66858"
         rx="0.67733538"
         ry="0.77716964"
         transform="rotate(12.839042)" /><ellipse
         style="opacity:1;fill:#f9f9f9;stroke:none;stroke-width:0.723;stroke-linejoin:round;stroke-dasharray:none"
         id="ellipse7"
         cx="127.6487"
         cy="107.32438"
         rx="0.67733538"
         ry="0.77716964"
         transform="rotate(11.150729)" /></g></g></svg>
